<?xml version="1.0" encoding="UTF-8" standalone="no"?>
<!DOCTYPE svg PUBLIC "-//W3C//DTD SVG 1.1//EN" "http://www.w3.org/Graphics/SVG/1.1/DTD/svg11.dtd">
<svg width="100%" height="100%" viewBox="0 0 100 100" version="1.1" xmlns="http://www.w3.org/2000/svg" xmlns:xlink="http://www.w3.org/1999/xlink" xml:space="preserve" xmlns:serif="http://www.serif.com/" style="fill-rule:evenodd;clip-rule:evenodd;stroke-linejoin:round;stroke-miterlimit:2;">
    <path d="M28,12L72,12C80.861,12 88,19.139 88,28L88,72C88,80.861 80.861,88 72,88L28,88C19.139,88 12,80.861 12,72L12,28C12,19.139 19.139,12 28,12Z" style="fill:rgb(255,171,0);"/>
    <circle cx="49.951" cy="50" r="50" style="fill:rgb(255,191,64);"/>
    <g transform="matrix(0.988507,0,0,0.986283,0.108391,-0.246579)">
        <path d="M26,30C22.71,30 20,32.71 20,36L20,64C20,67.29 22.71,70 26,70L74,70C77.29,70 80,67.29 80,64L80,36C80,32.71 77.29,30 74,30L26,30Z" style="fill:none;stroke:black;stroke-width:3.44px;"/>
    </g>
    <g transform="matrix(0.952162,0,0,1.01816,1.83603,-4.35877)">
        <path d="M26.828,34L73.168,34L55.355,51.785C52.37,54.766 47.594,54.766 44.609,51.781L26.828,34Z" style="fill:rgb(255,191,64);stroke:black;stroke-width:3.49px;"/>
    </g>
</svg>
