<?xml version="1.0" encoding="UTF-8" standalone="no"?>
<!DOCTYPE svg PUBLIC "-//W3C//DTD SVG 1.1//EN" "http://www.w3.org/Graphics/SVG/1.1/DTD/svg11.dtd">
<svg width="100%" height="100%" viewBox="0 0 3544 3544" version="1.1" xmlns="http://www.w3.org/2000/svg" xmlns:xlink="http://www.w3.org/1999/xlink" xml:space="preserve" xmlns:serif="http://www.serif.com/" style="fill-rule:evenodd;clip-rule:evenodd;stroke-linecap:round;stroke-linejoin:round;stroke-miterlimit:1.5;">
    <g transform="matrix(-1,0,0,1,3543.29,0)">
        <g transform="matrix(0.979307,0,0,0.979301,36.6555,40.8608)">
            <circle cx="1771.65" cy="1767.11" r="1771.65" style="fill:none;stroke:rgb(255,191,64);stroke-width:73.75px;"/>
        </g>
        <g transform="matrix(-1,0,0,1,3487.71,0)">
            <g transform="matrix(0.821732,0,0,1,396.071,13.8275)">
                <path d="M2979.06,1725.59C2979.06,1694.2 2948.05,1668.73 2909.87,1668.73L369.165,1668.73C330.977,1668.73 299.974,1694.2 299.974,1725.59C299.974,1756.97 330.977,1782.44 369.165,1782.44L2909.87,1782.44C2948.05,1782.44 2979.06,1756.97 2979.06,1725.59Z" style="fill:rgb(255,191,64);"/>
            </g>
            <g transform="matrix(0.39795,-0.337152,0.646418,0.762984,530.712,1391.16)">
                <path d="M2979.06,1725.59C2979.06,1694.2 2930.21,1668.73 2870.05,1668.73L408.984,1668.73C348.82,1668.73 299.974,1694.2 299.974,1725.59C299.974,1756.97 348.82,1782.44 408.984,1782.44L2870.05,1782.44C2930.21,1782.44 2979.06,1756.97 2979.06,1725.59Z" style="fill:rgb(255,191,64);"/>
            </g>
            <g transform="matrix(0.39795,0.337152,0.646418,-0.762984,529.153,2087.68)">
                <path d="M2979.06,1725.59C2979.06,1694.2 2930.21,1668.73 2870.05,1668.73L408.984,1668.73C348.82,1668.73 299.974,1694.2 299.974,1725.59C299.974,1756.97 348.82,1782.44 408.984,1782.44L2870.05,1782.44C2930.21,1782.44 2979.06,1756.97 2979.06,1725.59Z" style="fill:rgb(255,191,64);"/>
            </g>
        </g>
    </g>
</svg>
