<?xml version="1.0" encoding="UTF-8" standalone="no"?>
<!DOCTYPE svg PUBLIC "-//W3C//DTD SVG 1.1//EN" "http://www.w3.org/Graphics/SVG/1.1/DTD/svg11.dtd">
<svg width="100%" height="100%" viewBox="0 0 128 128" version="1.1" xmlns="http://www.w3.org/2000/svg" xmlns:xlink="http://www.w3.org/1999/xlink" xml:space="preserve" xmlns:serif="http://www.serif.com/" style="fill-rule:evenodd;clip-rule:evenodd;stroke-linejoin:round;stroke-miterlimit:2;">
    <g transform="matrix(1.22622,0,0,1.2278,-14.5604,-14.7439)">
        <path d="M64,12C35.282,12 12,35.282 12,64C12,92.718 35.282,116 64,116C92.718,116 116,92.718 116,64C116,35.282 92.718,12 64,12ZM84.646,86C82.208,78.392 76.132,72.506 68.096,71.706L68.096,86L66.856,86C44.992,86 32.52,70.984 32,46L42.954,46C43.314,64.338 51.388,72.106 57.784,73.708L57.784,46L68.098,46L68.098,61.816C74.414,61.136 81.05,53.928 83.288,46L93.602,46C91.884,55.77 84.688,62.976 79.57,65.94C84.686,68.342 92.882,74.628 96,86L84.646,86Z" style="fill:rgb(255,191,64);fill-rule:nonzero;"/>
    </g>
</svg>
