<?xml version="1.0" encoding="UTF-8" standalone="no"?>
<!DOCTYPE svg PUBLIC "-//W3C//DTD SVG 1.1//EN" "http://www.w3.org/Graphics/SVG/1.1/DTD/svg11.dtd">
<svg width="100%" height="100%" viewBox="0 0 128 128" version="1.1" xmlns="http://www.w3.org/2000/svg" xmlns:xlink="http://www.w3.org/1999/xlink" xml:space="preserve" xmlns:serif="http://www.serif.com/" style="fill-rule:evenodd;clip-rule:evenodd;stroke-linejoin:round;stroke-miterlimit:2;">
    <g transform="matrix(1.19113,0,0,1.16467,-14.6789,-10.7438)">
        <ellipse cx="66.054" cy="64.246" rx="53.73" ry="54.881" style="fill:rgb(255,191,64);"/>
    </g>
    <g transform="matrix(0.875053,0,0,0.873916,8.57167,6.45379)">
        <path d="M98.016,30.016C88.984,20.984 76.984,16 64.203,16C37.859,16 16.406,37.438 16.406,63.781C16.391,72.203 18.594,80.422 22.781,87.672L16,112.438L41.344,105.781C48.313,109.594 56.188,111.594 64.188,111.609L64.203,111.609C90.547,111.609 111.984,90.172 112,63.813C112,51.047 107.031,39.047 98.016,30.016ZM64.203,103.531L64.188,103.531C57.063,103.531 50.063,101.609 43.969,98L42.516,97.141L27.469,101.078L31.484,86.422L30.547,84.922C26.563,78.594 24.469,71.281 24.469,63.781C24.469,41.891 42.297,24.078 64.219,24.078C74.828,24.078 84.797,28.219 92.297,35.719C99.797,43.234 103.922,53.203 103.922,63.813C103.922,85.719 86.094,103.531 64.203,103.531ZM85.984,73.781C84.797,73.188 78.922,70.297 77.828,69.906C76.734,69.5 75.938,69.313 75.141,70.5C74.344,71.703 72.063,74.391 71.359,75.188C70.672,75.969 69.969,76.078 68.781,75.484C67.578,74.891 63.734,73.625 59.172,69.547C55.625,66.391 53.219,62.469 52.531,61.281C51.828,60.078 52.453,59.438 53.047,58.844C53.594,58.313 54.25,57.453 54.844,56.75C55.438,56.063 55.641,55.563 56.047,54.766C56.438,53.969 56.234,53.266 55.938,52.672C55.641,52.078 53.25,46.188 52.25,43.797C51.281,41.469 50.297,41.797 49.563,41.75C48.875,41.719 48.078,41.719 47.281,41.719C46.484,41.719 45.188,42.016 44.094,43.219C43,44.406 39.922,47.297 39.922,53.172C39.922,59.047 44.203,64.734 44.797,65.531C45.391,66.313 53.219,78.375 65.203,83.547C68.047,84.781 70.266,85.516 72,86.063C74.859,86.969 77.469,86.844 79.531,86.547C81.828,86.203 86.594,83.656 87.594,80.859C88.578,78.078 88.578,75.688 88.281,75.188C87.984,74.688 87.188,74.391 85.984,73.781Z"/>
    </g>
</svg>
